<svg xmlns="http://www.w3.org/2000/svg" version="1.2" viewBox="0 0 100 29">
  <style>
    .a{fill:#eb5b27}.b{fill:#fff}
  </style>
  <path fill-rule="evenodd" d="M98.6 17.3v10.5H1.5V17.3z" class="a"/>
  <path d="M6.3 2.6v-.2l.1-.1H8.1q.2 0 .2.3v11.5q0 .3-.2.3H6.4l-.1-.1v-5h-2V14.3l-.1.1H2.5q-.2 0-.2-.3V2.6q0-.3.2-.3H4.2l.1.1v4.9h2z"/>
  <path fill-rule="evenodd" d="M15.5 14.4q-.2 0-.2-.2l-.4-2.2h-2.7l-.4 2.2q-.1.2-.3.2H9.9q-.3 0-.2-.3l2.5-11.6q.1-.2.3-.2h2.1q.2 0 .2.2l2.5 11.6q.1.3-.2.3zm-2-9.5-.9 5.3h1.9z"/>
  <path d="M22.6 2.3c1.4 0 2.2.8 2.2 2.2v1.6q0 .2-.3.2H22.8l-.1-.1V4.9q0-.6-.6-.6h-.7c-.4 0-.6.2-.6.6V7l3.6 1.2c.2.1.4.2.4.5v3.5c0 1.4-.8 2.2-2.2 2.2h-1.7c-1.4 0-2.2-.8-2.2-2.2v-1.6q0-.2.3-.2h1.5q.3 0 .3.2v1.2c0 .4.2.6.6.6h.7q.6 0 .6-.6v-2l-3.6-1.2q-.4-.1-.4-.6V4.5c0-1.4.8-2.2 2.2-2.2zm7.7.3v-.2l.1-.1H32.1q.2 0 .2.3v11.5q0 .3-.2.3H30.4l-.1-.1v-5h-2V14.3l-.1.1H26.5q-.2 0-.2-.3V2.6q0-.3.2-.3H28.2l.1.1v4.9h2zm9.1-.2q.2 0 .2.2v1.6q0 .2-.2.2h-1.8v9.8q0 .3-.2.3h-1.6q-.2 0-.3-.3V4.4h-1.8q-.1 0-.1-.1l-.1-.1V2.6h.1v-.1q0-.1.1-.1h.1z"/>
  <path fill-rule="evenodd" d="M46.5 14.4q-.2 0-.2-.2l-.5-2.2h-2.7l-.4 2.2q0 .2-.2.2h-1.6q-.3 0-.2-.3l2.5-11.6q0-.2.2-.2h2.1q.3 0 .3.2l2.5 11.6q.1.3-.2.3zm-2-9.5-1 5.3h2z"/>
  <path d="M49.7 4.5c0-1.4.7-2.2 2.2-2.2h2c1.4 0 2.1.8 2.1 2.2V6.2l-.1.1h-1.6q-.3 0-.3-.2V4.9q0-.6-.6-.6h-1.1q-.6 0-.6.6v6.9q0 .6.6.6h1.1q.6 0 .6-.6v-2h-.7q-.3 0-.3-.3V8q0-.2.3-.2h2.5q.2 0 .2.2v4.2c0 1.4-.7 2.2-2.1 2.2h-2c-1.5 0-2.2-.8-2.2-2.2z"/>
  <path d="M67.3 2.3q.3 0 .2.3l-1.2 11.5q-.1.3-.4.3h-1.4q-.3 0-.4-.3l-1.6-6.8-1.5 6.8q-.1.3-.4.3h-1.5q-.3 0-.3-.3L57.5 2.6q0-.3.3-.3h1.5q.3 0 .3.3l.6 7.1h.1l1.5-7.1q0-.3.3-.3h.9q.3 0 .3.3l1.5 7.1h.1l.6-7.1v-.1l.1-.1q0-.1.1-.1h.1zm7.9 1.8c0 .1-.1.2-.3.2h-3.8v3H74q.3 0 .3.3v1.5q0 .2-.3.2h-2.9v3.1h3.8c.2 0 .3.1.3.2v1.5c0 .2-.1.3-.3.3h-5.5q-.3 0-.3-.3V2.6q0-.3.3-.3h5.5c.2 0 .3.1.3.3z" class="a"/>
  <path fill-rule="evenodd" d="M82.7 7.3c0 .5-.4.9-1 1v.1c.6 0 1 .5 1 1v2.8c0 1.4-.8 2.2-2.2 2.2h-3.7q-.1 0-.1-.1-.1 0-.1-.1V2.6q0-.3.3-.3h3.6c1.4 0 2.2.8 2.2 2.2zm-2-2.4q0-.6-.6-.6h-1.4v3.1h1.4q.6 0 .6-.6zm0 5q0-.6-.6-.6h-1.4v3.1h1.4q.6 0 .6-.6z" class="a"/>
  <path d="M84.2 12.7q0-.3.3-.3h1.4q.3 0 .3.3v1.4q0 .3-.3.3h-1.4q-.3 0-.3-.3zm5.3-10.4h.1q.1 0 .1.1l.1.1v11.6q0 .1-.1.1v.1l-.1.1H87.9q-.2 0-.2-.3V2.5q0-.2.2-.2zm8 0h.1q.1 0 .1.1l.1.1v11.6q0 .1-.1.1v.1l-.1.1H95.9q0-.1-.1-.1 0-.1-.1-.1l-2.3-6.5v6.4q0 .3-.3.3H91.4v-.1q-.1 0-.1-.1V2.4h.1v-.1H93q.2 0 .3.2l2.3 6.4h.1V2.5q0-.2.2-.2z"/>
  <path d="M10.4 24.4h-1v-1.3l-1.5-2.9h1.2l.8 1.9.8-1.9h1.2l-1.5 2.9z" class="b"/>
  <path fill-rule="evenodd" d="M14 23.8q-.6-.6-.6-1.5t.6-1.5q.6-.6 1.5-.6t1.5.6q.7.6.7 1.5t-.7 1.5q-.6.7-1.5.7t-1.5-.7zm2.3-.6q.3-.3.3-.9 0-.5-.3-.9-.3-.3-.8-.3t-.8.3q-.3.4-.3.9 0 .6.3.9.3.3.8.3t.8-.3z" class="b"/>
  <path d="M19.5 22.7v-2.5h1v2.5q0 .4.2.6.2.2.5.2.4 0 .6-.2.2-.2.2-.6v-2.5h1v2.5q0 .6-.3 1-.2.4-.6.6-.4.2-.9.2-.7 0-1.2-.5-.5-.4-.5-1.3z" class="b"/>
  <path fill-rule="evenodd" d="M26.1 22.8v1.6h-1v-4.2h1.6q.8 0 1.2.4.4.4.4.9 0 .4-.3.7-.2.4-.7.5l1.1 1.7h-1.2l-1-1.6zm0-1.8v1h.6q.3 0 .4-.1.1-.2.1-.4V21.2q-.1 0-.1-.1-.1-.1-.4-.1z" class="b"/>
  <path d="M37.9 20.2H39l-1.2 4.2h-1.1l-.8-2.6-.7 2.6H34l-1.2-4.2h1.1l.8 3 .7-3h1.2l.7 3zm5.3 0v.8h-1.5v.9H43v.7h-1.3v1h1.5v.8h-2.5v-4.2z" class="b"/>
  <path fill-rule="evenodd" d="M45.3 20.2h1.8q.7 0 1 .3l.2.2q.1.1.1.2.1.1.1.2v.2q0 .7-.8 1 .4 0 .7.3.2.3.2.7 0 .5-.3.8-.4.3-1.1.3h-1.9zm1 .8v.9h.7q.2 0 .3-.1.2-.1.2-.4 0-.2-.2-.3-.1-.1-.3-.1zm0 2.6h.8q.2 0 .3-.1.1-.1.2-.3 0-.3-.2-.4-.1-.1-.3-.1h-.8z" class="b"/>
  <path d="M54.9 21q-.2 0-.3.1-.1.1-.1.3 0 .2.1.3.1.1.3.2.2 0 .4.1.2 0 .4.1h.2q0 .1.1.1h.1q0 .1.1.1l.3.3q.1.3.1.6 0 .5-.5.9-.4.4-1.1.4-.7 0-1.1-.4-.5-.3-.5-1h1.1q0 .5.5.5.2 0 .4-.1.1-.1.1-.3v-.1q0-.1-.1-.1v-.1q-.1-.1-.3-.1l-.1-.1h-.2q-.1 0-.1-.1l-.5-.1-.4-.2q-.2-.1-.3-.3-.1-.2-.1-.5 0-.6.5-1 .4-.3 1.1-.3.6 0 1.1.3.4.3.4.9h-1.1q0-.2-.2-.3-.1-.1-.3-.1z" class="b"/>
  <path fill-rule="evenodd" d="M59 23.8q-.7-.6-.7-1.5t.7-1.5q.6-.6 1.5-.6t1.5.6q.6.6.6 1.5t-.6 1.5q-.6.7-1.5.7t-1.5-.7zm2.3-.6q.3-.3.3-.9 0-.5-.3-.9-.3-.3-.8-.3t-.8.3q-.3.4-.3.9 0 .6.3.9.3.3.8.3t.8-.3z" class="b"/>
  <path d="M64.5 20.2h1v3.4h1.3v.8h-2.3zM68.5 22.7v-2.5h1v2.5q0 .4.2.6.2.2.6.2.3 0 .5-.2t.2-.6v-2.5h1v2.5q0 .6-.2 1-.3.4-.7.6-.4.2-.8.2-.8 0-1.3-.5-.5-.4-.5-1.3zM73.8 21v-.8h3.3v.8H76v3.4h-1.1V21zm5.2 3.4v-4.2h1v4.2z" class="b"/>
  <path fill-rule="evenodd" d="M82.4 23.8q-.6-.6-.6-1.5t.6-1.5q.6-.6 1.5-.6 1 0 1.6.6.6.6.6 1.5t-.6 1.5q-.7.7-1.6.7-.9 0-1.5-.7zm2.3-.6q.3-.3.4-.9-.1-.5-.4-.9-.3-.3-.8-.3t-.8.3q-.3.4-.3.9 0 .6.3.9.3.3.8.3t.8-.3z" class="b"/>
  <path d="M90.7 20.2h1v4.2h-1L89 21.8v2.6h-1.1v-4.2H89l1.7 2.7z" class="b"/>
</svg>
