<svg xmlns="http://www.w3.org/2000/svg" version="1.2" viewBox="0 0 100 41">
  <defs>
    <linearGradient id="a" gradientUnits="userSpaceOnUse"/>
    <linearGradient id="b" x2="1" gradientTransform="matrix(7.928 -46.623 38.225 6.5 27.854 35.278)" href="#a">
      <stop stop-color="#de2b2b"/>
      <stop offset=".5" stop-color="#f47c00"/>
      <stop offset="1" stop-color="#f4c303"/>
    </linearGradient>
    <linearGradient id="c" x2="1" gradientTransform="matrix(1.367 -34.611 33.883 1.338 25.836 36.933)" href="#a">
      <stop stop-color="#de2b2b"/>
      <stop offset=".5" stop-color="#f47c00"/>
      <stop offset="1" stop-color="#f4c303"/>
    </linearGradient>
    <linearGradient id="d" x2="1" gradientTransform="matrix(-.955 -22.435 32.292 -1.375 22.847 37.526)" href="#a">
      <stop stop-color="#de2b2b"/>
      <stop offset=".5" stop-color="#f47c00"/>
      <stop offset="1" stop-color="#f4c303"/>
    </linearGradient>
    <linearGradient id="e" x2="1" gradientTransform="matrix(-18.903 -30.198 31.111 -19.474 32.777 52.567)" href="#a">
      <stop stop-color="#de2b2b"/>
      <stop offset=".5" stop-color="#f47c00"/>
      <stop offset="1" stop-color="#f4c303"/>
    </linearGradient>
  </defs>
  <path fill="url(#b)" d="M39.9 22.8 22.7 1.6c-4.3 3.6-4.9 10-1.4 14.3L38.5 37c4.3-3.5 4.9-9.8 1.4-14.2z"/>
  <path fill="url(#c)" d="M36.3 22.9 14.4 6.8c-3.3 4.5-2.3 10.8 2.1 14.1l22 16.1c3.3-4.5 2.3-10.8-2.2-14.1z"/>
  <path fill="url(#d)" d="M32.1 24.3 6.3 15.8c-1.8 5.3 1.1 11 6.4 12.7L38.5 37c1.7-5.3-1.2-11-6.4-12.7z"/>
  <path fill="url(#e)" d="m28.5 26.9-27.2-.1c0 5.6 4.5 10.2 10 10.2h27.2c0-5.5-4.5-10.1-10-10.1z"/>
  <path fill-rule="evenodd" d="M44.4 35.2h-1.1v-4.8q.1.1.4.1.2 0 .6-.1v3.9h1.2v.9h-1.1zm1.7-1.9q0-.4.1-.7.1-.4.4-.6.6-.6 1.4-.6.8 0 1.2.5.5.5.5 1.2 0 .3-.1.4-.3.1-1.4.1H47q.1.4.4.6.3.2.9.2.5 0 .9-.2.1-.1.2-.1v.3l-.1.5q-.2.2-.8.3h-.4q-.9 0-1.4-.5-.6-.5-.6-1.4zm2.6-.4q-.1-.8-.8-.8-.5 0-.8.5-.1.1-.1.3H48.7zm4.2 2q-.5.3-.9.3t-.7-.1q-.3 0-.5-.2-.4-.3-.4-.9 0-.5.5-.8.5-.4 1.4-.4h.4q-.1-.5-.5-.6-.2-.1-.3-.1-.2 0-.4.1-.1 0-.3.1-.3.1-.5.2l-.1-.8q.6-.3 1.4-.3 1.1 0 1.4.8.1.3.1.6v1.3q0 .4.3.6l-.6.5q-.2-.1-.3-.3zm-.2-.7v-.7h-.4q-.7 0-.9.3-.1.1-.1.2v.2l.2.2q.2.1.5.1.4 0 .7-.2v-.1zm2.8-1.6v2.6h-.9v-3.7h.9v.2q.3-.3.6-.3t.5.1l-.1.9q-.1-.2-.5-.2-.1 0-.3.1-.1.1-.2.3zm2.5.1v2.5h-.9v-3.7h.9v.3q.4-.4 1-.4.5 0 .9.4.3.4.3 1V34.9l.1.2v.1H59.4v-2q0-1-.7-1-.4 0-.7.5zm3.9-1.7-.8-.6.6-.8.8.6q-.2.2-.3.4l-.3.4zm.2.5V35.2h-.9v-3.7zm1.9 1.2v2.5h-.9v-3.7h.9v.3q.4-.4 1-.4.5 0 .9.4.3.4.3 1v1.4q0 .6.1.7v.2l.1.1h-1v-2q0-1-.6-1-.5 0-.8.5zm4.2 1.5q-.1.1-.1.2v.2q0 .1.1.1.3.1.8.2t.8.2q.3.1.5.3.4.4.4 1t-.5 1q-.4.3-1.3.3-.8 0-1.4-.4-.5-.4-.5-1 0-.7.6-1.1-.2-.1-.3-.3v-.4q0-.4.3-.7-.4-.3-.4-.9 0-.6.5-1.1.4-.4 1.2-.4.4 0 .8.1l.6-.3q.2-.2.3-.2 0 .1.1.2l.1.3q0 .3.1.4-.2.2-.6.2.2.3.2.7 0 .3-.2.6-.1.2-.3.4-.4.5-1.1.5-.4 0-.7-.1zm-.1-1.6v.5l.2.2q.2.2.6.2.3 0 .5-.2t.2-.5q0-.3-.2-.5t-.5-.2q-.6 0-.8.5zm.9 4.3q.8 0 .8-.6 0-.3-.2-.4-.4-.2-1.1-.4h-.2q-.2.1-.3.3-.2.2-.2.4t.1.3q.1.1.3.2.3.2.8.2zm7.7-6.2v1.1q-.3-.4-.9-.5-.2-.1-.4-.1h-.3q-.1.1-.2.1-.2.2-.2.4t.1.4q.3.1.7.2.5.1.8.2.3.1.5.3.4.3.4.9 0 .8-.6 1.2-.5.3-1.3.3-.6 0-1.2-.2-.2-.1-.3-.2v-1.2q.5.8 1.5.8.7 0 .9-.3.1-.2.1-.3 0-.2-.1-.2 0-.1-.1-.2-.2-.1-.7-.2-.5 0-.8-.2-.3-.1-.5-.3-.3-.3-.3-.9 0-.7.4-1 .5-.4 1.2-.4.8 0 1.3.3zm1.9 6-.9-.3.2-.2q.5-.4.9-1.3l.1-.4-1.3-3h1l.8 2.1.8-2.1h1q-.2.2-.4.9l-.5 1.3q-1.1 2.5-1.7 3zm4.3-1.5q-1 0-1.5-.4v-.5q0-.2.1-.3l.2.2q.2.1.4.1.4.2.8.2.6 0 .6-.4 0-.2-.1-.2-.2-.1-.6-.2-.4 0-.6-.2-.3-.1-.5-.2-.3-.3-.3-.7 0-.6.5-.9.4-.3 1.1-.3.7 0 1.3.4-.1.1-.1.2-.1.2-.1.3l-.1.2v.1l-.1-.1q-.2-.3-.6-.4H83q-.7 0-.7.4 0 .1.2.2t.6.2q.5.1.7.2l.4.2q.2.3.2.8t-.4.8q-.4.3-1.1.3zm4-.8q.4 0 .6-.3v.9q-.2.1-.6.2h-.3q-.2 0-.4-.1-.3 0-.4-.2-.3-.3-.3-1v-1.6h-.6v-.8h.6v-1h.8v1h1v.8h-1v1.4q0 .6.3.6.1.1.3.1zm1.1-1.1q0-.4.2-.7.1-.4.4-.6.5-.6 1.4-.6.8 0 1.2.5.5.5.5 1.2 0 .3-.1.4-.3.1-1.4.1H89q.1.4.4.6.3.2.9.2.5 0 .9-.2.1-.1.2-.1 0 .1-.1.3v.5q-.3.2-.8.3h-.4q-.9 0-1.5-.5t-.6-1.4zm2.7-.4q-.1-.8-.8-.8-.5 0-.8.5-.1.1-.1.3h1.7zm2.7-.2v2.5h-.9v-3.7h.9v.3q.5-.4 1-.4.6 0 .8.5.3-.3.5-.4.3-.1.6-.1t.5.1q.2.1.3.3.3.4.3 1V34.9l.1.2v.1h-1v-1.9q0-.9-.2-1-.1-.1-.2-.1h-.2q-.1.1-.2.1-.1.1-.3.4v1q0 .9.1 1.5h-.9v-2q0-.5-.1-.7-.1-.2-.2-.2 0-.1-.1-.1-.5 0-.8.5zM46.4 23.2v5.1q-.9-.1-2.2-.1h-1V11.6h.5q.5.1.8.1h.4q1 0 1.5-.1v7l5-7q.8.1 1.3.1h.7q1.3 0 1.8-.1l-4.8 6.2 4.7 9.4q.3.7.6 1h-.8q-2.6 0-3.2.1-.1-.8-.4-1.4l-3.1-6.1zm13.9 1.5-1.1 3.7q-1.1-.1-2.5-.1h-1l5.4-15.2q.3-1 .3-1.2v-.2h3.5v.1q0 .3.4 1.3l5.5 15.2h-3.7l-1.2-3.6zm1-3h3.6l-1.8-5.8zm11.2 6.6V11.6q1.8-.2 3.6-.2 3.3 0 5.1 1.6 1.7 1.6 1.7 4.7 0 2.9-1.9 4.5-1.8 1.6-4.6 1.6-.3 0-.7-.1v4.6zm3.9-13.9h-.8V21h1q.6 0 1.2-.2.6-.3 1-.7.9-.9.9-2.4 0-3.3-3.3-3.3zm19-1.8-.3 3.7H95q-.9-1.4-3.1-1.8-.7-.1-1.3-.1-.7 0-1.1.1-.5.1-.8.3-.7.5-.7 1.2 0 .9.6 1.4.8.6 2.5.8 1.7.2 2.8.6 1 .4 1.7 1 1.2 1.2 1.2 3.3 0 2.7-2 4.2-1.8 1.3-4.5 1.3-2.1 0-4.2-.8-.7-.3-1.2-.7L85 23l.1-.1q1.5 2.7 5 2.7 2.5 0 3.3-1.2.3-.4.3-.9t-.2-.9q-.2-.3-.5-.5-.8-.5-2.5-.7-1.6-.1-2.7-.6-1.1-.4-1.7-1.1-1.2-1.2-1.2-3.3 0-2.2 1.5-3.6 1.6-1.4 4.3-1.4 2.6 0 4.7 1.2z"/>
</svg>
